<?xml version="1.0" encoding="UTF-8" standalone="no"?>
<!-- Created with Inkscape (http://www.inkscape.org/) -->

<svg
   width="105.83334mm"
   height="105.83334mm"
   viewBox="0 0 105.83334 105.83334"
   version="1.1"
   id="svg5"
   xml:space="preserve"
   inkscape:version="1.2.2 (b0a8486541, 2022-12-01)"
   sodipodi:docname="image.svg"
   xmlns:inkscape="http://www.inkscape.org/namespaces/inkscape"
   xmlns:sodipodi="http://sodipodi.sourceforge.net/DTD/sodipodi-0.dtd"
   xmlns="http://www.w3.org/2000/svg"
   xmlns:svg="http://www.w3.org/2000/svg"
   xmlns:rdf="http://www.w3.org/1999/02/22-rdf-syntax-ns#"
   xmlns:cc="http://creativecommons.org/ns#"
   xmlns:dc="http://purl.org/dc/elements/1.1/"><title
     id="title524">Ansible Actions</title><sodipodi:namedview
     id="namedview7"
     pagecolor="#ffffff"
     bordercolor="#000000"
     borderopacity="0.25"
     inkscape:showpageshadow="2"
     inkscape:pageopacity="0.0"
     inkscape:pagecheckerboard="0"
     inkscape:deskcolor="#d1d1d1"
     inkscape:document-units="mm"
     showgrid="false"
     inkscape:zoom="1.5429574"
     inkscape:cx="154.57329"
     inkscape:cy="215.81932"
     inkscape:window-width="1920"
     inkscape:window-height="1011"
     inkscape:window-x="1920"
     inkscape:window-y="32"
     inkscape:window-maximized="1"
     inkscape:current-layer="layer1" /><defs
     id="defs2" /><g
     inkscape:label="Layer 1"
     inkscape:groupmode="layer"
     id="layer1"
     transform="translate(-33.207848,-57.093735)"><g
       id="g467"
       transform="matrix(1.0170193,0,0,1.0170193,-2.2305983,-2.6462009)"><path
         style="fill:#3493fe;stroke-width:0.264583"
         d="m 86.069112,155.23275 c -3.118038,-0.45712 -5.232784,-2.0302 -7.116086,-5.29339 -0.754343,-1.30705 -1.699046,-2.60967 -2.099342,-2.8947 -0.400299,-0.28504 -1.507636,-0.68172 -2.460749,-0.88151 -4.409327,-0.92427 -8.756974,-4.78099 -10.182755,-9.03295 -0.972074,-2.89892 -1.104413,-5.24507 -1.104413,-19.57956 v -13.85272 l -1.458537,-0.30279 c -4.319257,-0.89667 -8.1898,-4.22027 -10.296772,-8.841737 -1.254963,-2.752654 -1.542383,-4.403866 -1.430861,-8.220219 0.100506,-3.439364 0.108271,-3.476185 1.22294,-5.799218 1.68501,-3.511655 3.406673,-5.474145 6.366635,-7.257205 2.679587,-1.614164 7.193813,-2.621035 10.414173,-2.32282 6.007286,0.556294 10.365167,3.858412 12.380792,9.381354 1.577099,4.321354 1.588204,8.605038 0.03369,12.9979 -1.026051,2.899497 -2.261441,4.833054 -4.26748,6.679195 -2.332337,2.14644 -4.636326,3.19709 -8.297795,3.78392 -0.983318,0.1576 -1.015658,0.19545 -0.859729,1.00612 0.08912,0.4633 0.599215,1.73533 1.13356,2.82673 1.699395,3.47105 4.540126,5.69131 7.986975,6.24249 l 1.015868,0.16244 0.170362,-1.24294 c 0.275892,-2.01283 1.594282,-4.44579 3.143507,-5.80101 4.530194,-3.96291 12.47189,-3.33711 16.557809,1.30474 1.142801,1.29829 2.28487,3.51703 2.538539,4.93172 l 0.173435,0.96722 2.763652,0.18837 c 3.19826,0.218 4.92906,0.0253 5.50676,-0.6131 0.22465,-0.24826 0.73478,-1.33179 1.13363,-2.40786 0.95579,-2.57866 3.1028,-4.9383 5.61981,-6.17641 1.64319,-0.80828 1.9306,-0.86295 4.53658,-0.86295 2.60893,0 2.90127,0.0558 4.69272,0.89549 4.75582,2.22918 7.92894,8.08513 7.02241,12.95976 -0.6434,3.45972 -3.10375,6.82737 -6.01396,8.23171 -4.17192,2.01318 -8.99415,1.52337 -12.46535,-1.26616 -1.35254,-1.08693 -1.75867,-1.64436 -2.97863,-4.0884 -1.65798,-3.32152 -1.73788,-3.36706 -5.9124,-3.36946 -3.39859,-0.002 -3.740937,0.15116 -4.424845,1.97907 -0.931246,2.48898 -1.495166,3.38877 -3.038722,4.8486 -4.092887,3.87088 -10.368645,4.17047 -14.781314,0.70561 -1.90968,-1.49949 -2.963823,-2.94081 -3.500154,-4.78572 -0.648875,-2.23205 -1.442583,-2.92731 -4.23626,-3.71079 -2.331331,-0.65381 -3.989787,-1.61589 -6.019271,-3.49179 l -0.727605,-0.67254 -0.06615,7.25939 c -0.116695,12.80696 -0.0949,13.41615 0.548653,15.33488 1.354405,4.03814 5.040604,7.44302 8.35238,7.71497 l 1.029679,0.0846 0.336725,-1.62402 c 1.041837,-5.02479 5.043133,-8.89234 9.594152,-9.27345 4.89163,-0.40963 9.751312,2.40071 11.973156,6.92406 0.881764,1.79514 0.907333,1.9374 0.903483,5.02708 -0.0037,2.96943 -0.05499,3.28463 -0.77571,4.76717 -1.669799,3.43481 -5.057665,5.93568 -8.767266,6.47186 -1.006581,0.14549 -1.949209,0.25237 -2.09473,0.23751 -0.145521,-0.0149 -0.944359,-0.12669 -1.775198,-0.24849 z m 4.568671,-3.57954 c 2.861559,-0.84979 4.680022,-2.83055 5.272615,-5.7432 1.199875,-5.89749 -3.090448,-10.99825 -8.75297,-10.4064 -2.908414,0.30399 -4.945571,1.75537 -6.163597,4.39127 -0.865571,1.87317 -0.775115,5.18153 0.20016,7.32056 1.783837,3.91241 5.435151,5.62821 9.443792,4.43777 z m 0.173805,-27.8049 c 1.923492,-0.60633 3.321048,-1.86959 4.325443,-3.90981 0.734809,-1.49261 0.831731,-1.94989 0.824807,-3.8915 -0.0043,-1.21007 -0.127733,-2.58764 -0.274256,-3.06125 -0.517615,-1.67311 -1.866644,-3.37846 -3.414838,-4.31682 -1.303215,-0.78989 -1.766712,-0.91979 -3.576709,-1.00249 -3.520099,-0.16082 -5.906894,1.22933 -7.353345,4.28282 -1.300366,2.74511 -1.245764,5.62414 0.15893,8.3799 1.674926,3.2859 5.483209,4.72543 9.309968,3.51915 z m 31.501312,-0.0767 c 1.98822,-0.69083 3.71909,-2.45767 4.53972,-4.63406 0.49155,-1.30367 0.57818,-1.96386 0.48594,-3.70318 -0.1782,-3.36011 -1.56928,-5.66891 -4.21094,-6.98896 -1.38344,-0.69131 -1.93322,-0.81625 -3.59195,-0.81625 -3.22102,0 -5.49322,1.39829 -6.99858,4.30684 -0.7756,1.49856 -0.98994,5.18323 -0.4019,6.90903 1.49521,4.38821 5.77076,6.45781 10.17771,4.92658 z M 68.265142,100.2244 C 73.50036,99.373779 77.333011,95.247316 78.017226,89.724718 79.176911,80.364412 72.24446,72.707232 64.111892,74.3657 c -4.462476,0.910029 -7.204685,2.957316 -9.187962,6.859577 -1.34799,2.652283 -1.710239,4.462243 -1.534953,7.669318 0.123455,2.258759 0.257283,2.807907 1.122849,4.607494 2.459504,5.113521 7.747451,7.698151 13.753316,6.722311 z m 48.714488,54.7522 c -1.46029,-0.36662 -3.9886,-1.76761 -5.19196,-2.87697 -1.29837,-1.19696 -2.77105,-3.64185 -3.19867,-5.31033 l -0.32969,-1.28637 -1.74083,0.14199 c -2.21346,0.18056 -3.47935,-0.14645 -3.97323,-1.02636 -0.33946,-0.60479 -0.33151,-0.75751 0.0714,-1.37246 0.42657,-0.65103 0.5789,-0.69194 2.57598,-0.69194 1.88404,0 2.19351,-0.0709 2.75363,-0.63105 0.34708,-0.34707 0.7693,-1.15074 0.93826,-1.78594 0.47965,-1.80307 1.84153,-4.15234 2.96423,-5.11332 6.04674,-5.1758 14.41783,-3.26323 17.90469,4.09072 0.89885,1.89573 0.94116,2.1144 0.94712,4.8948 0.006,2.71025 -0.05,3.02942 -0.81191,4.64086 -1.12356,2.37643 -3.22352,4.50423 -5.49378,5.56662 -1.4989,0.70141 -2.18012,0.85612 -4.09312,0.92955 -1.26223,0.0484 -2.75719,-0.028 -3.32214,-0.1698 z m 5.0313,-3.29004 c 1.90044,-0.56438 3.57176,-1.97142 4.48684,-3.77738 0.64672,-1.27633 0.78383,-1.90147 0.85954,-3.91897 0.0824,-2.19482 0.0234,-2.54744 -0.68825,-4.11701 -1.45438,-3.20755 -3.58198,-4.58055 -7.07475,-4.5655 -2.52088,0.0108 -3.96816,0.56363 -5.56856,2.12686 -1.76042,1.71952 -2.33301,3.22532 -2.34931,6.17822 -0.0123,2.23212 0.0691,2.68347 0.72678,4.02767 0.88855,1.81613 2.41772,3.34949 3.95047,3.9613 1.40601,0.56121 3.92579,0.59899 5.65724,0.0848 z"
         id="path471"
         sodipodi:nodetypes="cssssscssssssssssscscscsscssssscsssscsssssscssccsssssscccssssssssssscsssssssssssssssssscsscsssssccsccscccsscccsscsss" /><path
         style="fill:#0a0a0a;stroke-width:0.264583"
         d="m 86.389101,149.40325 c -3.039761,-1.19994 -4.531913,-4.53881 -3.322251,-7.43394 0.964467,-2.30829 4.109506,-3.83226 6.344711,-3.07441 0.57095,0.19358 1.090298,0.51103 1.15411,0.70544 0.09203,0.28037 -0.185356,0.31581 -1.341353,0.17138 -1.972246,-0.24642 -2.969307,0.0201 -4.185348,1.11871 -1.856434,1.67718 -1.998578,4.18691 -0.346454,6.11705 1.067409,1.24702 2.350569,1.74649 4.007144,1.55977 2.023669,-0.2281 3.774858,-2.0388 3.774858,-3.90316 0,-0.94505 0.51874,-1.76758 0.884241,-1.40208 0.354409,0.35441 0.158302,2.25434 -0.330843,3.20529 -1.307815,2.54253 -4.292122,3.86231 -6.638815,2.93595 z m 0.595313,-4.59786 c -0.915919,-0.97356 -1.036788,-1.31693 -0.566002,-1.60789 0.161793,-0.1 0.570767,0.16058 0.909865,0.5797 l 0.615969,0.76133 2.468546,-2.44739 c 2.400938,-2.38037 3.12006,-2.85553 3.12006,-2.06157 0,0.37976 -5.146961,5.70422 -5.504871,5.69471 -0.101021,-0.003 -0.570624,-0.41619 -1.043567,-0.91889 z M 86.25681,122.64793 c -3.501306,-1.25843 -5.411121,-4.61253 -4.627812,-8.12758 0.405522,-1.81975 1.333992,-3.14507 2.999555,-4.28164 1.075161,-0.73369 1.574491,-0.89185 3.08501,-0.97721 2.134434,-0.1206 3.258863,0.20359 4.807543,1.38609 2.376768,1.8148 3.264308,5.41457 2.006537,8.1383 -0.81031,1.75474 -1.802612,2.76252 -3.508333,3.56306 -1.435275,0.6736 -3.380428,0.79571 -4.7625,0.29898 z m 1.584182,-2.04893 c 0.365625,-0.5792 0.664776,-1.11498 0.664776,-1.19063 0,-0.0757 -1.071562,-0.13755 -2.38125,-0.13755 -1.309688,0 -2.38125,0.0672 -2.38125,0.14938 0,0.43335 2.543874,2.1775 3.237828,2.21994 0.107315,0.007 0.494268,-0.46195 0.859896,-1.04114 z m 3.63701,0.11753 c 1.164873,-0.77088 1.198454,-0.97535 0.38176,-2.32447 -0.708062,-1.16966 -0.67437,-1.19319 -2.171894,1.51644 l -1.010443,1.8283 0.90203,-0.1804 c 0.496115,-0.0992 1.350463,-0.47717 1.898547,-0.83987 z m 2.56847,-4.48842 c 0.01844,-1.75823 -0.17956,-1.98437 -1.737366,-1.98437 h -1.426612 l 0.834763,1.52135 c 0.459118,0.83675 1.017371,1.8178 1.24056,2.18012 l 0.405794,0.65876 0.33727,-0.79105 c 0.185499,-0.43508 0.341013,-1.14824 0.345591,-1.58481 z m -8.454105,1.52136 c -0.0016,-0.10914 -0.525352,-1.07637 -1.163797,-2.14941 -1.060222,-1.78191 -1.186061,-1.90378 -1.452223,-1.40645 -0.315752,0.58998 -0.402564,3.29037 -0.115023,3.57791 0.243462,0.24346 2.734734,0.22335 2.731043,-0.022 z m 4.353999,-0.73483 c 0.474996,-0.88202 0.478536,-0.98374 0.06445,-1.85209 -0.410789,-0.86143 -0.517969,-0.91881 -1.716344,-0.91881 -1.199139,0 -1.305377,0.057 -1.717717,0.92169 -0.419815,0.88036 -0.414907,0.96341 0.109424,1.85208 0.488442,0.82785 0.67066,0.9304 1.653267,0.9304 0.992333,0 1.155293,-0.0946 1.606923,-0.93327 z m -3.801263,-3.49851 c 1.011589,-1.6672 1.565322,-2.80176 1.432329,-2.93476 -0.236857,-0.23685 -2.111565,0.47683 -2.878092,1.09567 l -0.76372,0.61656 0.631428,1.10533 c 0.347284,0.60792 0.708964,1.10623 0.80373,1.10735 0.09477,10e-4 0.443212,-0.44444 0.774325,-0.99015 z m 6.593999,-0.81039 c 0,-0.37401 -1.421411,-1.5393 -2.299134,-1.88487 -1.025922,-0.40392 -1.262566,-0.2749 -1.943357,1.05957 l -0.530765,1.04038 h 2.386629 c 1.312643,0 2.386627,-0.0968 2.386627,-0.21508 z m 28.095268,8.74789 c -0.12858,-0.25466 -0.80928,-2.21282 -1.51268,-4.35147 -0.7034,-2.13865 -1.35881,-3.83907 -1.45647,-3.77872 -0.0977,0.0604 -0.39197,0.79813 -0.65403,1.6395 -0.5495,1.76424 -0.71065,1.91709 -2.02701,1.92258 -1.22609,0.005 -1.80758,-0.21547 -1.80758,-0.68571 0,-0.25918 0.34543,-0.36857 1.16379,-0.36857 h 1.16378 l 0.71306,-2.05052 c 1.02302,-2.94185 1.15408,-3.24115 1.41922,-3.24115 0.44181,0 0.72383,0.65001 2.03645,4.69365 0.7199,2.2177 1.38169,4.03341 1.47064,4.0349 0.0889,0.002 0.39575,-0.74144 0.68178,-1.65094 l 0.52006,-1.65365 1.65526,-0.0793 c 1.47374,-0.0706 1.64535,-0.0271 1.56481,0.39687 -0.0661,0.34775 -0.40815,0.51191 -1.26809,0.60851 l -1.17764,0.13229 -0.6765,2.11667 c -0.92704,2.90061 -1.28314,3.35636 -1.80885,2.3151 z M 57.284933,96.219011 c 0,-0.163706 0.291403,-0.967377 0.647563,-1.785938 0.35616,-0.818562 1.136692,-2.678919 1.734515,-4.134128 1.264695,-3.07849 2.771027,-6.659943 3.481682,-8.278032 0.273991,-0.623855 0.795475,-1.924157 1.158851,-2.88956 0.363379,-0.965403 0.79199,-1.913492 0.952476,-2.106864 0.456644,-0.550224 1.494459,-0.418613 1.921889,0.243726 0.349194,0.541112 1.678183,3.643757 3.994949,9.326564 0.474604,1.164166 1.362525,3.307291 1.973154,4.7625 1.666417,3.971285 1.673135,3.994359 1.342874,4.611455 -0.494286,0.923584 -1.473737,0.670327 -3.397597,-0.87851 -0.974497,-0.784537 -3.198294,-2.578338 -4.941766,-3.986223 -2.716136,-2.193324 -3.197415,-2.491002 -3.36178,-2.079297 -0.105505,0.264269 -0.658611,1.611585 -1.229124,2.994033 -0.570514,1.382448 -1.180304,2.960026 -1.355093,3.50573 -0.310407,0.96911 -0.348089,0.992187 -1.620195,0.992187 -0.788319,0 -1.302398,-0.117485 -1.302398,-0.297643 z M 70.702039,91.423425 C 67.930103,84.543924 66.45654,80.996828 66.302915,80.834051 c -0.201843,-0.213872 -2.494791,5.251897 -2.352654,5.608092 0.120253,0.301353 6.392612,5.300446 6.658293,5.306685 0.124709,0.0029 0.166777,-0.143502 0.09349,-0.325403 z"
         id="path469" /></g></g><metadata
     id="metadata522"><rdf:RDF><cc:License
         rdf:about="http://creativecommons.org/licenses/by-sa/4.0/"><cc:permits
           rdf:resource="http://creativecommons.org/ns#Reproduction" /><cc:permits
           rdf:resource="http://creativecommons.org/ns#Distribution" /><cc:requires
           rdf:resource="http://creativecommons.org/ns#Notice" /><cc:requires
           rdf:resource="http://creativecommons.org/ns#Attribution" /><cc:permits
           rdf:resource="http://creativecommons.org/ns#DerivativeWorks" /><cc:requires
           rdf:resource="http://creativecommons.org/ns#ShareAlike" /></cc:License><cc:Work
         rdf:about=""><cc:license
           rdf:resource="http://creativecommons.org/licenses/by-sa/4.0/" /><dc:title>Ansible Actions</dc:title><dc:creator><cc:Agent><dc:title>L3D &lt;l3d@c3woc.de&gt;</dc:title></cc:Agent></dc:creator></cc:Work></rdf:RDF></metadata></svg>
